<svg width="22" height="22" viewBox="0 0 22 22" fill="none" xmlns="http://www.w3.org/2000/svg">
<path d="M20.3428 5.39062C20.5816 4.62031 20.6582 3.80887 20.5677 3.00747C20.4773 2.20608 20.2218 1.43211 19.8174 0.734373C19.7488 0.615582 19.6501 0.516942 19.5313 0.448371C19.4126 0.379801 19.2778 0.343717 19.1406 0.343748C18.2307 0.341843 17.3328 0.552794 16.5189 0.959748C15.705 1.3667 14.9976 1.95838 14.4531 2.6875H12.1094C11.5649 1.95838 10.8575 1.3667 10.0436 0.959748C9.22965 0.552794 8.33185 0.341843 7.42188 0.343748C7.28471 0.343717 7.14995 0.379801 7.03115 0.448371C6.91235 0.516942 6.8137 0.615582 6.74512 0.734373C6.34067 1.43211 6.08518 2.20608 5.99476 3.00747C5.90433 3.80887 5.98093 4.62031 6.21973 5.39062C5.73704 6.23312 5.47848 7.18532 5.46875 8.15625V8.9375C5.47039 10.2594 5.95026 11.536 6.81975 12.5317C7.68923 13.5274 8.88961 14.1748 10.1992 14.3545C9.66466 15.0385 9.3745 15.8819 9.375 16.75V17.5312H7.03125C6.40965 17.5312 5.81351 17.2843 5.37397 16.8448C4.93443 16.4052 4.6875 15.8091 4.6875 15.1875C4.6875 14.6745 4.58646 14.1666 4.39015 13.6926C4.19385 13.2187 3.90611 12.7881 3.54339 12.4254C3.18066 12.0626 2.75004 11.7749 2.27611 11.5786C1.80218 11.3823 1.29423 11.2812 0.78125 11.2812C0.57405 11.2812 0.375336 11.3636 0.228823 11.5101C0.0823101 11.6566 0 11.8553 0 12.0625C0 12.2697 0.0823101 12.4684 0.228823 12.6149C0.375336 12.7614 0.57405 12.8437 0.78125 12.8437C1.40285 12.8437 1.99899 13.0907 2.43853 13.5302C2.87807 13.9698 3.125 14.5659 3.125 15.1875C3.125 16.2235 3.53655 17.2171 4.26911 17.9496C5.00168 18.6822 5.99525 19.0938 7.03125 19.0938H9.375V20.6562C9.375 20.8635 9.45731 21.0622 9.60382 21.2087C9.75034 21.3552 9.94905 21.4375 10.1562 21.4375C10.3635 21.4375 10.5622 21.3552 10.7087 21.2087C10.8552 21.0622 10.9375 20.8635 10.9375 20.6562V16.75C10.9375 16.1284 11.1844 15.5323 11.624 15.0927C12.0635 14.6532 12.6596 14.4062 13.2812 14.4062C13.9029 14.4062 14.499 14.6532 14.9385 15.0927C15.3781 15.5323 15.625 16.1284 15.625 16.75V20.6562C15.625 20.8635 15.7073 21.0622 15.8538 21.2087C16.0003 21.3552 16.199 21.4375 16.4062 21.4375C16.6135 21.4375 16.8122 21.3552 16.9587 21.2087C17.1052 21.0622 17.1875 20.8635 17.1875 20.6562V16.75C17.188 15.8819 16.8978 15.0385 16.3633 14.3545C17.6729 14.1748 18.8733 13.5274 19.7428 12.5317C20.6122 11.536 21.0921 10.2594 21.0938 8.9375V8.15625C21.084 7.18532 20.8255 6.23312 20.3428 5.39062ZM19.5312 8.9375C19.5312 9.9735 19.1197 10.9671 18.3871 11.6996C17.6546 12.4322 16.661 12.8437 15.625 12.8437H10.9375C9.9015 12.8437 8.90793 12.4322 8.17536 11.6996C7.4428 10.9671 7.03125 9.9735 7.03125 8.9375V8.15625C7.04083 7.37502 7.27472 6.61301 7.70508 5.96094C7.7853 5.85519 7.83726 5.73075 7.85606 5.59936C7.87485 5.46797 7.85986 5.33395 7.8125 5.20996C7.60901 4.68515 7.51107 4.12535 7.52431 3.56262C7.53755 2.9999 7.6617 2.44532 7.88965 1.93066C8.52902 1.99944 9.14471 2.21124 9.69109 2.55036C10.2375 2.88948 10.7005 3.34722 11.0459 3.88965C11.1163 3.99971 11.2131 4.09037 11.3276 4.15332C11.4421 4.21627 11.5705 4.24951 11.7012 4.25H14.8604C14.9915 4.25 15.1205 4.217 15.2355 4.15402C15.3506 4.09104 15.4479 4.00013 15.5186 3.88965C15.8639 3.34717 16.3269 2.88939 16.8733 2.55027C17.4197 2.21115 18.0354 1.99937 18.6748 1.93066C18.9024 2.44545 19.0263 3.00009 19.0392 3.56282C19.0521 4.12554 18.9538 4.68528 18.75 5.20996C18.7028 5.33277 18.687 5.46542 18.704 5.59588C18.7211 5.72635 18.7705 5.85049 18.8477 5.95703C19.2823 6.6091 19.5196 7.37269 19.5312 8.15625V8.9375Z" fill="white"/>
</svg>
