<svg width="25" height="23" viewBox="0 0 25 23" fill="none" xmlns="http://www.w3.org/2000/svg">
<g filter="url(#filter0_d_6_53)">
<path d="M12.5 5.8125C11.5729 5.8125 10.6666 6.08742 9.89576 6.60249C9.12491 7.11756 8.5241 7.84964 8.16931 8.70617C7.81453 9.5627 7.7217 10.5052 7.90257 11.4145C8.08344 12.3238 8.52988 13.159 9.18544 13.8146C9.841 14.4701 10.6762 14.9166 11.5855 15.0974C12.4948 15.2783 13.4373 15.1855 14.2938 14.8307C15.1504 14.4759 15.8824 13.8751 16.3975 13.1042C16.9126 12.3334 17.1875 11.4271 17.1875 10.5C17.1862 9.25719 16.6919 8.06566 15.8131 7.18686C14.9343 6.30807 13.7428 5.81379 12.5 5.8125ZM12.5 13.625C11.8819 13.625 11.2777 13.4417 10.7638 13.0983C10.2499 12.755 9.8494 12.2669 9.61288 11.6959C9.37635 11.1249 9.31447 10.4965 9.43505 9.89034C9.55562 9.28415 9.85325 8.72733 10.2903 8.29029C10.7273 7.85325 11.2842 7.55562 11.8903 7.43505C12.4965 7.31447 13.1249 7.37635 13.6959 7.61288C14.2669 7.8494 14.755 8.24994 15.0983 8.76384C15.4417 9.27775 15.625 9.88193 15.625 10.5C15.625 11.3288 15.2958 12.1237 14.7097 12.7097C14.1237 13.2958 13.3288 13.625 12.5 13.625ZM17.1875 0.34375H7.8125C6.36257 0.345301 4.97248 0.921969 3.94722 1.94722C2.92197 2.97248 2.3453 4.36257 2.34375 5.8125V15.1875C2.3453 16.6374 2.92197 18.0275 3.94722 19.0528C4.97248 20.078 6.36257 20.6547 7.8125 20.6562H17.1875C18.6374 20.6547 20.0275 20.078 21.0528 19.0528C22.078 18.0275 22.6547 16.6374 22.6562 15.1875V5.8125C22.6547 4.36257 22.078 2.97248 21.0528 1.94722C20.0275 0.921969 18.6374 0.345301 17.1875 0.34375ZM21.0938 15.1875C21.0938 16.2235 20.6822 17.2171 19.9496 17.9496C19.2171 18.6822 18.2235 19.0938 17.1875 19.0938H7.8125C6.7765 19.0938 5.78293 18.6822 5.05036 17.9496C4.3178 17.2171 3.90625 16.2235 3.90625 15.1875V5.8125C3.90625 4.7765 4.3178 3.78293 5.05036 3.05036C5.78293 2.3178 6.7765 1.90625 7.8125 1.90625H17.1875C18.2235 1.90625 19.2171 2.3178 19.9496 3.05036C20.6822 3.78293 21.0938 4.7765 21.0938 5.8125V15.1875ZM18.75 5.42188C18.75 5.65365 18.6813 5.88022 18.5525 6.07293C18.4237 6.26565 18.2407 6.41585 18.0266 6.50455C17.8124 6.59324 17.5768 6.61645 17.3495 6.57123C17.1222 6.52602 16.9134 6.41441 16.7495 6.25052C16.5856 6.08663 16.474 5.87782 16.4288 5.6505C16.3836 5.42318 16.4068 5.18755 16.4955 4.97342C16.5842 4.75929 16.7344 4.57626 16.9271 4.4475C17.1198 4.31873 17.3464 4.25 17.5781 4.25C17.8889 4.25 18.187 4.37346 18.4068 4.59323C18.6265 4.813 18.75 5.11107 18.75 5.42188Z" fill="white"/>
</g>
<defs>
<filter id="filter0_d_6_53" x="-2.65625" y="0.34375" width="30.3125" height="30.3125" filterUnits="userSpaceOnUse" color-interpolation-filters="sRGB">
<feFlood flood-opacity="0" result="BackgroundImageFix"/>
<feColorMatrix in="SourceAlpha" type="matrix" values="0 0 0 0 0 0 0 0 0 0 0 0 0 0 0 0 0 0 127 0" result="hardAlpha"/>
<feOffset dy="5"/>
<feGaussianBlur stdDeviation="2.5"/>
<feComposite in2="hardAlpha" operator="out"/>
<feColorMatrix type="matrix" values="0 0 0 0 0 0 0 0 0 0 0 0 0 0 0 0 0 0 0.25 0"/>
<feBlend mode="normal" in2="BackgroundImageFix" result="effect1_dropShadow_6_53"/>
<feBlend mode="normal" in="SourceGraphic" in2="effect1_dropShadow_6_53" result="shape"/>
</filter>
</defs>
</svg>
