<svg width="21" height="21" viewBox="0 0 21 21" fill="none" xmlns="http://www.w3.org/2000/svg">
<path d="M19.0938 0.34375H1.90625C1.49185 0.34375 1.09442 0.50837 0.801396 0.801396C0.50837 1.09442 0.34375 1.49185 0.34375 1.90625V19.0938C0.34375 19.5082 0.50837 19.9056 0.801396 20.1986C1.09442 20.4916 1.49185 20.6562 1.90625 20.6562H19.0938C19.5082 20.6562 19.9056 20.4916 20.1986 20.1986C20.4916 19.9056 20.6562 19.5082 20.6562 19.0938V1.90625C20.6562 1.49185 20.4916 1.09442 20.1986 0.801396C19.9056 0.50837 19.5082 0.34375 19.0938 0.34375ZM19.0938 19.0938H1.90625V1.90625H19.0938V19.0938ZM7.375 8.9375V15.1875C7.375 15.3947 7.29269 15.5934 7.14618 15.7399C6.99966 15.8864 6.80095 15.9688 6.59375 15.9688C6.38655 15.9688 6.18784 15.8864 6.04132 15.7399C5.89481 15.5934 5.8125 15.3947 5.8125 15.1875V8.9375C5.8125 8.7303 5.89481 8.53159 6.04132 8.38507C6.18784 8.23856 6.38655 8.15625 6.59375 8.15625C6.80095 8.15625 6.99966 8.23856 7.14618 8.38507C7.29269 8.53159 7.375 8.7303 7.375 8.9375ZM15.9688 11.6719V15.1875C15.9688 15.3947 15.8864 15.5934 15.7399 15.7399C15.5934 15.8864 15.3947 15.9688 15.1875 15.9688C14.9803 15.9688 14.7816 15.8864 14.6351 15.7399C14.4886 15.5934 14.4062 15.3947 14.4062 15.1875V11.6719C14.4062 11.1539 14.2005 10.6571 13.8342 10.2908C13.4679 9.92453 12.9711 9.71875 12.4531 9.71875C11.9351 9.71875 11.4383 9.92453 11.0721 10.2908C10.7058 10.6571 10.5 11.1539 10.5 11.6719V15.1875C10.5 15.3947 10.4177 15.5934 10.2712 15.7399C10.1247 15.8864 9.92595 15.9688 9.71875 15.9688C9.51155 15.9688 9.31284 15.8864 9.16632 15.7399C9.01981 15.5934 8.9375 15.3947 8.9375 15.1875V8.9375C8.93847 8.74614 9.00964 8.56179 9.13751 8.41942C9.26539 8.27705 9.44106 8.18656 9.63122 8.16512C9.82138 8.14369 10.0128 8.19279 10.1692 8.30312C10.3255 8.41345 10.4359 8.57733 10.4795 8.76367C11.008 8.40515 11.6242 8.19736 12.2619 8.16262C12.8995 8.12787 13.5347 8.26749 14.099 8.56647C14.6633 8.86545 15.1355 9.3125 15.465 9.85961C15.7944 10.4067 15.9685 11.0332 15.9688 11.6719ZM7.76562 6.20312C7.76562 6.4349 7.6969 6.66147 7.56813 6.85418C7.43936 7.0469 7.25634 7.1971 7.04221 7.2858C6.82807 7.37449 6.59245 7.3977 6.36513 7.35248C6.13781 7.30727 5.929 7.19566 5.76511 7.03177C5.60122 6.86788 5.48961 6.65907 5.44439 6.43175C5.39918 6.20443 5.42238 5.9688 5.51108 5.75467C5.59977 5.54054 5.74998 5.35751 5.94269 5.22875C6.13541 5.09998 6.36198 5.03125 6.59375 5.03125C6.90455 5.03125 7.20262 5.15472 7.42239 5.37448C7.64216 5.59425 7.76562 5.89232 7.76562 6.20312Z" fill="white"/>
</svg>
