<svg width="25" height="19" viewBox="0 0 25 19" fill="none" xmlns="http://www.w3.org/2000/svg">
<path d="M23.9365 2.92577C23.1894 1.63769 21.2178 1.34765 18.2236 2.08007C16.8375 1.00824 15.1785 0.346648 13.4351 0.170466C11.6917 -0.00571632 9.93393 0.310569 8.36133 1.08339C6.78873 1.85621 5.4644 3.05459 4.53877 4.54239C3.61315 6.03019 3.12334 7.74776 3.125 9.49999C3.12512 9.90191 3.15056 10.3034 3.20117 10.7021C0.497065 13.5039 0.536128 15.1641 1.06445 16.0742C1.5625 16.9375 2.60156 17.3125 3.96874 17.3125C4.91798 17.2929 5.86163 17.1617 6.78027 16.9219C8.16661 17.9927 9.8254 18.6533 11.5683 18.8288C13.3112 19.0043 15.0684 18.6876 16.6404 17.9147C18.2124 17.1418 19.5362 15.9436 20.4614 14.4562C21.3867 12.9688 21.8764 11.2517 21.875 9.49999C21.8752 9.10004 21.8501 8.70048 21.7998 8.3037C23.0205 7.03417 23.833 5.82812 24.1094 4.79589C24.2998 4.08105 24.2422 3.45214 23.9365 2.92577ZM12.5 1.68749C14.2695 1.68931 15.9861 2.29094 17.3695 3.39416C18.753 4.49738 19.7216 6.03702 20.1172 7.76171C18.4512 9.33007 16.1963 10.9385 14.0557 12.1689C11.3652 13.7129 9.03125 14.6758 7.16992 15.2031C6.0235 14.1339 5.22555 12.7443 4.87994 11.2152C4.53433 9.68617 4.65707 8.08847 5.23218 6.63014C5.8073 5.1718 6.80814 3.9204 8.10442 3.03883C9.4007 2.15727 10.9324 1.68639 12.5 1.68749ZM2.41601 15.29C2.27343 15.0449 2.35253 14.583 2.63281 14.0205C2.90996 13.4935 3.24717 13.0003 3.63769 12.5508C4.0248 13.6724 4.6213 14.7103 5.3955 15.6094C3.71093 15.8926 2.66015 15.7119 2.41601 15.29ZM12.5 17.3125C11.1827 17.3138 9.88683 16.9798 8.73437 16.3418C10.8497 15.5937 12.8907 14.6501 14.831 13.5234C16.9385 12.3135 18.8037 11.0019 20.3066 9.70702C20.251 11.7414 19.4044 13.6738 17.9467 15.094C16.489 16.5141 14.5351 17.3099 12.5 17.3125ZM22.5996 4.39159C22.4336 5.0078 21.9951 5.71288 21.3662 6.45507C20.9801 5.33215 20.3835 4.2931 19.6084 3.39355C20.9961 3.16405 22.2812 3.18163 22.5869 3.70995C22.6748 3.86327 22.6797 4.09277 22.5996 4.39159Z" fill="white"/>
</svg>
